<?xml version="1.0" encoding="UTF-8"?>
<svg width="200px" height="200px" viewBox="0 0 200 200" version="1.1" xmlns="http://www.w3.org/2000/svg" xmlns:xlink="http://www.w3.org/1999/xlink">
    <title>logo_单图形</title>
    <defs>
        <linearGradient x1="0%" y1="0%" x2="99.333479%" y2="99.333479%" id="linearGradient-1">
            <stop stop-color="#5A57C4" offset="0%"></stop>
            <stop stop-color="#7875E6" offset="100%"></stop>
        </linearGradient>
        <linearGradient x1="41.531308%" y1="0%" x2="58.3558007%" y2="99.333479%" id="linearGradient-2">
            <stop stop-color="#5A57C4" offset="0%"></stop>
            <stop stop-color="#7875E6" offset="100%"></stop>
        </linearGradient>
    </defs>
    <g id="logo_单图形" stroke="none" stroke-width="1" fill="none" fill-rule="evenodd">
        <g id="编组备份" transform="translate(46.000000, 46.000000)">
            <path d="M95.4715215,0 L96.1139816,0.0100049425 C96.9700581,0.0384716612 97.8232421,0.126829398 98.6645927,0.267684201 C99.9248436,0.502257357 101.146044,0.761785104 102.42227,1.33740434 C104.916147,2.4503791 106.824274,4.63307399 107.575099,7.08694211 C108.3774,9.53249204 108.033049,12.3207517 106.630798,14.520083 C105.264047,16.7327234 102.933471,18.3980264 100.272744,19.0169003 C98.9450429,19.3196826 97.5410169,19.3729191 96.1849159,19.1366823 C95.8228156,19.0777419 95.4044949,18.9693677 95.031962,18.8609159 L94.3140646,18.6375905 C93.8081892,18.4845357 93.3023138,18.3647536 92.8070885,18.2965444 C91.8166378,18.1584623 90.8900871,18.2433079 90.1783116,18.6159632 C89.4665361,18.9836275 88.8754607,19.6723742 88.4583354,20.5341394 C87.6169848,22.2743062 87.3613846,24.4387011 87.2903845,26.5581777 C87.2034095,28.7042725 87.4288346,30.7954672 87.8211099,32.946553 C88.5369426,36.6177298 89.5367392,40.2681282 90.5969428,43.9315349 L92.2046088,49.4406246 C93.0918766,52.5113428 93.9434697,55.6028262 94.6300148,58.7346274 C95.6151405,63.1166536 96.360641,67.585189 96.4511661,72.1219337 C96.5487912,76.6453692 96.0216158,81.2469958 94.4880147,85.605731 C93.6608641,87.7684622 92.7005884,89.8679752 91.4279125,91.8576879 C90.1428116,93.8424097 88.5453104,95.6341493 86.7490092,97.2029613 C83.1475316,100.353894 78.8094285,102.584835 74.3293253,104.246811 C68.1541012,106.521201 61.5684025,107.777533 54.9457124,107.978477 L53.9994025,108 C47.0597377,107.894876 40.1399571,106.629505 33.6706747,104.246811 C29.1905715,102.584835 24.8524684,100.353894 21.2509908,97.2029613 C19.4546896,95.6341493 17.8571884,93.8424097 16.5720875,91.8576879 C15.2994116,89.8679752 14.3391359,87.7684622 13.5119853,85.605731 C11.9783842,81.2469958 11.4512088,76.6453692 11.5488339,72.1219337 C11.639359,67.585189 12.3848595,63.1166536 13.3699852,58.7346274 C14.1938394,54.976466 15.2553626,51.2763622 16.3309978,47.6005291 L17.4030572,43.9315349 C18.4632608,40.2681282 19.4630574,36.6177298 20.1788901,32.946553 C20.5711654,30.7954672 20.7965905,28.7042725 20.7096155,26.5581777 C20.6386154,24.4387011 20.3830152,22.2743062 19.5416646,20.5341394 C19.1245393,19.6723742 18.5334639,18.9836275 17.8216884,18.6159632 C17.1099129,18.2433079 16.1833622,18.1584623 15.1929115,18.2965444 C14.6976862,18.3647536 14.1918108,18.4845357 13.6859354,18.6375905 L13.2372586,18.7803337 C12.8081792,18.912091 12.2677094,19.0630069 11.8150841,19.1366823 C10.4589831,19.3729191 9.05495712,19.3196826 7.72725617,19.0169003 C5.06652927,18.3980264 2.7359526,16.7327234 1.36920163,14.520083 C-0.0330493745,12.3207517 -0.377399621,9.53249204 0.424900953,7.08694211 C1.17572649,4.63307399 3.08385285,2.4503791 5.57772964,1.33740434 C6.85395555,0.761785104 8.07515642,0.502257357 9.33540732,0.267684201 C10.1767579,0.126829398 11.0299419,0.0384716612 11.8860184,0.0100049425 L12.5284785,0 L13.1711851,0.0131473725 C18.3399888,0.174520395 23.2798173,2.59345209 26.5511446,6.26011333 C29.881047,9.92511094 31.5229232,14.5999377 32.0625236,19.1816006 C32.8758291,28.0555641 31.2426406,36.8160433 28.6171983,45.1143982 L26.8208755,50.7589581 C25.9844755,53.4083039 25.1823968,56.046602 24.5134432,58.7063455 C23.4253674,62.9586078 22.6763169,67.2690975 22.2609666,71.6195146 C21.8598163,75.8917405 22.0710414,80.2138757 23.3206423,84.2465376 C24.5090479,88.0729082 26.6119213,90.2413771 29.6108627,93.047684 L30.0674221,93.4629337 C30.3091107,93.6821071 30.5499767,93.8980836 30.7904049,94.110792 L31.5107607,94.7390417 L31.870675,95.0456799 L31.870675,95.0456799 L32.5914188,95.6437161 C34.5953249,97.275221 36.6355695,98.3242526 38.9343191,99.0097587 C30.5291021,88.7663609 26.059037,68.9344252 40.1866191,47.4651462 C40.3912576,47.154163 40.7990298,46.9134845 40.8909441,47.6174562 C41.2781695,50.5832152 43.4349016,58.5927075 56.3459808,68.7506905 C68.6316356,78.4166116 70.4478723,91.5289713 69.3331274,99.0908279 C71.1396126,98.5150638 72.7884392,97.6762351 74.3909381,96.4482826 L75.1028382,95.8905318 L75.8107744,95.3127187 C75.9285545,95.214767 76.0462601,95.1159962 76.1639367,95.0164146 L76.8700104,94.4092633 L77.5775648,93.7830568 L77.9325779,93.4629337 C81.1755052,90.596483 83.4315318,88.2642268 84.6793577,84.2465376 C85.9289586,80.2138757 86.1401837,75.8917405 85.7390334,71.6195146 C85.3236831,67.2690975 84.5746326,62.9586078 83.4865568,58.7063455 C82.8176032,56.046602 82.0155245,53.4083039 81.1791245,50.7589581 L79.6578791,45.9711859 C76.8729021,37.4200793 75.0961258,28.3615628 75.9374764,19.1816006 C76.4770768,14.5999377 78.118953,9.92511094 81.4488554,6.26011333 C84.614656,2.71173148 89.3430488,0.33187887 94.3293713,0.0357777491 L94.8288149,0.0131473725 L95.4715215,0 Z" id="形状结合" fill="url(#linearGradient-1)"></path>
            <path d="M55.5398452,13.0714417 C55.6013323,14.8561517 56.3711992,19.6739585 62.5994438,22.6293564 C66.4194345,24.441098 68.0995803,26.7808989 68.8385502,28.4932 C69.2082861,29.2468532 69.6088007,29.2497166 69.676477,28.2799113 C70.0971041,22.2523024 69.8997776,7.50274308 57.9495979,7.13847913 C39.8853442,6.5865862 34.1933334,46.4288552 56.9587758,64.0312254 C70.651991,74.6188977 74.1717877,85.3265574 72.8158993,95.9840062 C72.7680152,96.3603813 72.9308945,96.7977364 73.3711501,96.2080769 C76.580465,91.9096586 88.3224105,72.6605265 62.4566219,48.9037887 C43.1196498,31.141943 52.5529098,16.2639229 55.021184,13.0297815 C55.2396171,12.7131812 55.5199207,12.7831208 55.5398452,13.0714417 Z" id="Fill-3" fill="url(#linearGradient-2)"></path>
        </g>
    </g>
</svg>
