<?xml version="1.0" encoding="UTF-8"?>
<svg width="685px" height="174px" viewBox="0 0 685 174" version="1.1" xmlns="http://www.w3.org/2000/svg" xmlns:xlink="http://www.w3.org/1999/xlink">
    <title>logo</title>
    <defs>
    </defs>
    <g id="logo" stroke="none" stroke-width="1" fill="none" fill-rule="evenodd">
        <g id="编组-2" transform="translate(0.000000, 33.000000)">
            <g id="编组-5备份-2" transform="translate(0.000000, 20.000000)" fill="#202020" fill-rule="nonzero">
                <path d="M50.6505334,96.459591 L53.6299766,81.9668939 L17.0424148,81.9668939 L17.0424148,4.63291139 L0,4.63291139 L0,88.5004869 C0,91.6682895 0.55616272,93.7669588 1.66848816,94.7964946 C2.86026542,95.9052256 5.16436812,96.459591 8.58079625,96.459591 L8.58079625,96.459591 L50.6505334,96.459591 Z M60.7806401,122 C68.64637,122 74.5655304,120.178513 78.5381213,116.53554 C82.5107121,112.892567 86.1257698,106.042194 89.3832943,95.9844206 L89.3832943,95.9844206 L111.311996,27.5598832 L94.746292,27.5598832 L81.8750976,77.0963973 L66.6203487,27.5598832 L48.6245121,27.5598832 L75.0819672,97.4099318 C72.5395091,103.824732 69.6395177,107.5469 66.3819932,108.576436 C62.9655651,109.526777 58.3573597,109.526777 52.557377,108.576436 L52.557377,108.576436 L50.1738225,120.455696 C53.7491543,121.485232 57.2847602,122 60.7806401,122 Z M137.173562,96.459591 L137.173562,41.2210321 C140.033828,39.9539111 143.450256,39.3203505 147.422847,39.3203505 C151.395438,39.3203505 155.407754,40.1123012 159.459797,41.6962025 L159.459797,41.6962025 L162.200885,28.1538462 C157.910487,26.8867251 153.103652,26.2531646 147.78038,26.2531646 C137.451644,26.2531646 128.55304,28.7082116 121.084569,33.6183057 L121.084569,33.6183057 L121.084569,96.459591 L137.173562,96.459591 Z M198.788447,97.8851022 C208.958279,97.4891269 216.466476,95.9052256 221.313037,93.1333982 L221.313037,93.1333982 L224.530835,77.9279455 C216.665105,82.6796495 208.084309,84.9367089 198.788447,84.6991237 C188.539162,84.9367089 182.778905,79.5514443 181.507676,68.5433301 L181.507676,68.5433301 L213.685662,68.5433301 C218.532223,68.5433301 221.750022,67.870172 223.339058,66.5238559 C224.928094,65.1775398 225.762338,62.4849075 225.84179,58.4459591 C226.000694,48.6257709 223.537688,40.7854593 218.452771,34.9250243 C213.367855,29.1437845 206.495273,26.2531646 197.835025,26.2531646 C187.665192,26.2531646 179.600833,29.6189549 173.641946,36.3505355 C167.68306,43.0821162 164.703617,52.1895488 164.703617,63.6728335 C164.941972,86.4018176 176.303582,97.8059072 198.788447,97.8851022 Z M209.991153,55.8325219 L181.626854,55.8325219 C182.421372,50.6056475 184.248764,46.5271016 187.109029,43.5968841 C189.889843,40.7458617 193.425449,39.3203505 197.715847,39.3203505 C200.89392,39.3203505 203.555556,40.468679 205.700755,42.7653359 C207.607598,44.8244077 208.878827,47.5566375 209.514442,50.9620253 C209.832249,52.7043168 209.991153,54.3278156 209.991153,55.8325219 L209.991153,55.8325219 Z M266.71975,97.8851022 C281.100529,97.8851022 291.270362,93.2125933 297.229248,83.8675755 C301.201839,77.6111652 303.188134,69.4540734 303.188134,59.3962999 C303.188134,49.2593314 300.566224,41.2210321 295.322404,35.2814021 C289.999133,29.2625771 282.689565,26.2531646 273.393703,26.2531646 C267.434817,26.2531646 261.634834,28.0350536 255.993755,31.5988315 L255.993755,31.5988315 L256.351288,0 L240.262295,0 L240.262295,85.7682571 C240.262295,87.5897436 240.619828,89.0152548 241.334895,90.0447907 C242.049961,91.0743265 243.440368,92.1434599 245.506115,93.2521908 C247.651314,94.4401168 250.511579,95.4696527 254.086911,96.3407984 C258.297858,97.3703343 262.508804,97.8851022 266.71975,97.8851022 Z M268.388238,84.6991237 C264.177292,84.6991237 260.164975,84.0259656 256.351288,82.6796495 L256.351288,82.6796495 L256.351288,46.5666991 C260.323879,42.2109705 265.329343,39.7955209 271.367681,39.3203505 C281.616966,39.3203505 286.741608,46.8834794 286.741608,62.0097371 C286.741608,69.058098 285.112846,74.6017527 281.855321,78.6407011 C278.597797,82.6796495 274.108769,84.6991237 268.388238,84.6991237 Z M335.36612,18.412853 L335.36612,7.00876339 C335.286668,3.76176566 333.379825,2.09866926 329.645589,2.0194742 L329.645589,2.0194742 L318.08535,2.0194742 L318.08535,18.412853 L335.36612,18.412853 Z M334.770232,96.459591 L334.770232,27.5598832 L318.681239,27.5598832 L318.681239,96.459591 L334.770232,96.459591 Z M369.808483,96.459591 L369.808483,41.2210321 C372.668748,39.9539111 376.085177,39.3203505 380.057767,39.3203505 C384.030358,39.3203505 388.042675,40.1123012 392.094718,41.6962025 L392.094718,41.6962025 L394.835805,28.1538462 C390.545407,26.8867251 385.738572,26.2531646 380.415301,26.2531646 C370.086564,26.2531646 361.187961,28.7082116 353.71949,33.6183057 L353.71949,33.6183057 L353.71949,96.459591 L369.808483,96.459591 Z M428.682279,97.8851022 C438.852112,97.8851022 448.624686,95.5488478 458,90.8763389 L458,90.8763389 L458,0 L441.911007,0 L441.911007,27.916261 C437.779513,26.80753 433.608292,26.2531646 429.397346,26.2531646 C417.479573,26.2531646 408.660422,30.6484907 402.939891,39.4391431 C398.887848,45.6955534 396.861827,53.1398896 396.861827,61.7721519 C396.861827,73.0178513 399.682366,81.8481013 405.323445,88.2629017 C410.964524,94.677702 418.750802,97.8851022 428.682279,97.8851022 Z M428.920635,84.6991237 C418.591899,84.6991237 413.348079,76.8192145 413.189175,61.0593963 C413.189175,53.6942551 414.579582,48.2297955 417.360396,44.6660175 C420.141209,41.1022395 424.511059,39.3203505 430.469945,39.3203505 C435.713765,39.3203505 439.527453,40.0331061 441.911007,41.4586173 L441.911007,41.4586173 L441.911007,82.7984421 C437.382253,84.0655631 433.052129,84.6991237 428.920635,84.6991237 Z" id="Lyrebird"></path>
            </g>
        </g>
    </g>
</svg>
